<svg width="300" height="220" viewBox="0 0 300 220" xmlns="http://www.w3.org/2000/svg">
  <!-- Ciel -->
  <rect width="300" height="220" fill="#dff6ff"/>

  <!-- Soleil -->
  <circle cx="245" cy="45" r="25" fill="#ffd166"/>

  <!-- Voile -->
  <polygon points="145,35 145,130 75,130" fill="#ffffff" stroke="#333" stroke-width="3"/>
  <polygon points="155,55 155,130 215,130" fill="#f4f4f4" stroke="#333" stroke-width="3"/>

  <!-- Mât -->
  <line x1="150" y1="30" x2="150" y2="150" stroke="#333" stroke-width="5"/>

  <!-- Coque -->
  <path d="M55 135 H245 L220 175 H85 Z" fill="#8d5524" stroke="#333" stroke-width="3"/>

  <!-- Mer -->
  <path d="M0 175 Q25 160 50 175 T100 175 T150 175 T200 175 T250 175 T300 175 V220 H0 Z" fill="#118ab2"/>

  <!-- Vagues -->
  <path d="M20 190 Q35 180 50 190 T80 190" fill="none" stroke="#ffffff" stroke-width="3"/>
  <path d="M120 200 Q135 190 150 200 T180 200" fill="none" stroke="#ffffff" stroke-width="3"/>
  <path d="M220 190 Q235 180 250 190 T280 190" fill="none" stroke="#ffffff" stroke-width="3"/>
</svg>